<mxfile host="app.diagrams.net" modified="2024-07-26T15:35:22.460Z" agent="Mozilla/5.0 (Windows NT 10.0; Win64; x64) AppleWebKit/537.36 (KHTML, like Gecko) Chrome/126.0.0.0 Safari/537.36 Edg/126.0.0.0" etag="oKXYu1MxklNRVmfRdJYR" version="24.5.3" type="device">
  <diagram id="C5RBs43oDa-KdzZeNtuy" name="Page-1">
    <mxGraphModel dx="1542" dy="2044" grid="1" gridSize="10" guides="1" tooltips="1" connect="1" arrows="1" fold="1" page="1" pageScale="1" pageWidth="827" pageHeight="1169" math="0" shadow="0">
      <root>
        <mxCell id="WIyWlLk6GJQsqaUBKTNV-0" />
        <mxCell id="WIyWlLk6GJQsqaUBKTNV-1" parent="WIyWlLk6GJQsqaUBKTNV-0" />
        <mxCell id="zkfFHV4jXpPFQw0GAbJ--17" value="MainPage" style="swimlane;fontStyle=0;align=center;verticalAlign=top;childLayout=stackLayout;horizontal=1;startSize=26;horizontalStack=0;resizeParent=1;resizeLast=0;collapsible=1;marginBottom=0;rounded=0;shadow=0;strokeWidth=1;" parent="WIyWlLk6GJQsqaUBKTNV-1" vertex="1">
          <mxGeometry x="40" y="-640" width="230" height="370" as="geometry">
            <mxRectangle x="550" y="140" width="160" height="26" as="alternateBounds" />
          </mxGeometry>
        </mxCell>
        <mxCell id="zkfFHV4jXpPFQw0GAbJ--18" value="- instance: Mainpage" style="text;align=left;verticalAlign=top;spacingLeft=4;spacingRight=4;overflow=hidden;rotatable=0;points=[[0,0.5],[1,0.5]];portConstraint=eastwest;" parent="zkfFHV4jXpPFQw0GAbJ--17" vertex="1">
          <mxGeometry y="26" width="230" height="26" as="geometry" />
        </mxCell>
        <mxCell id="zkfFHV4jXpPFQw0GAbJ--19" value="- root: VBox" style="text;align=left;verticalAlign=top;spacingLeft=4;spacingRight=4;overflow=hidden;rotatable=0;points=[[0,0.5],[1,0.5]];portConstraint=eastwest;rounded=0;shadow=0;html=0;" parent="zkfFHV4jXpPFQw0GAbJ--17" vertex="1">
          <mxGeometry y="52" width="230" height="26" as="geometry" />
        </mxCell>
        <mxCell id="zkfFHV4jXpPFQw0GAbJ--20" value="- primaryStage: Stage" style="text;align=left;verticalAlign=top;spacingLeft=4;spacingRight=4;overflow=hidden;rotatable=0;points=[[0,0.5],[1,0.5]];portConstraint=eastwest;rounded=0;shadow=0;html=0;" parent="zkfFHV4jXpPFQw0GAbJ--17" vertex="1">
          <mxGeometry y="78" width="230" height="26" as="geometry" />
        </mxCell>
        <mxCell id="zkfFHV4jXpPFQw0GAbJ--21" value="- backgroundColor: Color" style="text;align=left;verticalAlign=top;spacingLeft=4;spacingRight=4;overflow=hidden;rotatable=0;points=[[0,0.5],[1,0.5]];portConstraint=eastwest;rounded=0;shadow=0;html=0;" parent="zkfFHV4jXpPFQw0GAbJ--17" vertex="1">
          <mxGeometry y="104" width="230" height="26" as="geometry" />
        </mxCell>
        <mxCell id="zkfFHV4jXpPFQw0GAbJ--22" value="- fontColor: Color" style="text;align=left;verticalAlign=top;spacingLeft=4;spacingRight=4;overflow=hidden;rotatable=0;points=[[0,0.5],[1,0.5]];portConstraint=eastwest;rounded=0;shadow=0;html=0;" parent="zkfFHV4jXpPFQw0GAbJ--17" vertex="1">
          <mxGeometry y="130" width="230" height="26" as="geometry" />
        </mxCell>
        <mxCell id="zkfFHV4jXpPFQw0GAbJ--23" value="" style="line;html=1;strokeWidth=1;align=left;verticalAlign=middle;spacingTop=-1;spacingLeft=3;spacingRight=3;rotatable=0;labelPosition=right;points=[];portConstraint=eastwest;" parent="zkfFHV4jXpPFQw0GAbJ--17" vertex="1">
          <mxGeometry y="156" width="230" height="8" as="geometry" />
        </mxCell>
        <mxCell id="zkfFHV4jXpPFQw0GAbJ--24" value="+ MainPage() &#xa;+ getInstance() &#xa;+ applyBackgroundColor(color: Color) &#xa;+ applyFontColor(color: Color) &#xa;+ applyFontColorToLabels(pane: Pane) &#xa;+ getRoot() &#xa;+ toHexString(color: Color): String &#xa;+ start(primaryStage: Stage) &#xa;+ showMainMenu() &#xa;+ showHelpPage() &#xa;+ showAboutUsPage()&#xa;+ logout() &#xa;+ getPrimaryStage(): Stage &#xa;+ main(args: String[])&#xa;&#xa;" style="text;align=left;verticalAlign=top;spacingLeft=4;spacingRight=4;overflow=hidden;rotatable=0;points=[[0,0.5],[1,0.5]];portConstraint=eastwest;" parent="zkfFHV4jXpPFQw0GAbJ--17" vertex="1">
          <mxGeometry y="164" width="230" height="206" as="geometry" />
        </mxCell>
        <mxCell id="98bKc9Ek5NFNc1EkKo61-8" value="LoginPage" style="swimlane;fontStyle=0;align=center;verticalAlign=top;childLayout=stackLayout;horizontal=1;startSize=26;horizontalStack=0;resizeParent=1;resizeLast=0;collapsible=1;marginBottom=0;rounded=0;shadow=0;strokeWidth=1;" vertex="1" parent="WIyWlLk6GJQsqaUBKTNV-1">
          <mxGeometry x="50" y="-1100" width="210" height="300" as="geometry">
            <mxRectangle x="550" y="140" width="160" height="26" as="alternateBounds" />
          </mxGeometry>
        </mxCell>
        <mxCell id="98bKc9Ek5NFNc1EkKo61-9" value="- usernameField: TextField&#xa;&#xa;" style="text;align=left;verticalAlign=top;spacingLeft=4;spacingRight=4;overflow=hidden;rotatable=0;points=[[0,0.5],[1,0.5]];portConstraint=eastwest;" vertex="1" parent="98bKc9Ek5NFNc1EkKo61-8">
          <mxGeometry y="26" width="210" height="26" as="geometry" />
        </mxCell>
        <mxCell id="98bKc9Ek5NFNc1EkKo61-10" value="- passwordField: PasswordField" style="text;align=left;verticalAlign=top;spacingLeft=4;spacingRight=4;overflow=hidden;rotatable=0;points=[[0,0.5],[1,0.5]];portConstraint=eastwest;rounded=0;shadow=0;html=0;" vertex="1" parent="98bKc9Ek5NFNc1EkKo61-8">
          <mxGeometry y="52" width="210" height="26" as="geometry" />
        </mxCell>
        <mxCell id="98bKc9Ek5NFNc1EkKo61-11" value="- showPasswordField: TextField" style="text;align=left;verticalAlign=top;spacingLeft=4;spacingRight=4;overflow=hidden;rotatable=0;points=[[0,0.5],[1,0.5]];portConstraint=eastwest;rounded=0;shadow=0;html=0;" vertex="1" parent="98bKc9Ek5NFNc1EkKo61-8">
          <mxGeometry y="78" width="210" height="26" as="geometry" />
        </mxCell>
        <mxCell id="98bKc9Ek5NFNc1EkKo61-12" value="- messageLabel: Label" style="text;align=left;verticalAlign=top;spacingLeft=4;spacingRight=4;overflow=hidden;rotatable=0;points=[[0,0.5],[1,0.5]];portConstraint=eastwest;rounded=0;shadow=0;html=0;" vertex="1" parent="98bKc9Ek5NFNc1EkKo61-8">
          <mxGeometry y="104" width="210" height="26" as="geometry" />
        </mxCell>
        <mxCell id="98bKc9Ek5NFNc1EkKo61-13" value="- primaryStage: Stage" style="text;align=left;verticalAlign=top;spacingLeft=4;spacingRight=4;overflow=hidden;rotatable=0;points=[[0,0.5],[1,0.5]];portConstraint=eastwest;rounded=0;shadow=0;html=0;" vertex="1" parent="98bKc9Ek5NFNc1EkKo61-8">
          <mxGeometry y="130" width="210" height="26" as="geometry" />
        </mxCell>
        <mxCell id="98bKc9Ek5NFNc1EkKo61-14" value="" style="line;html=1;strokeWidth=1;align=left;verticalAlign=middle;spacingTop=-1;spacingLeft=3;spacingRight=3;rotatable=0;labelPosition=right;points=[];portConstraint=eastwest;" vertex="1" parent="98bKc9Ek5NFNc1EkKo61-8">
          <mxGeometry y="156" width="210" height="8" as="geometry" />
        </mxCell>
        <mxCell id="98bKc9Ek5NFNc1EkKo61-15" value="+ start(primaryStage: Stage) &#xa;+ handleLogin() &#xa;+ showPassword() &#xa;+ hidePassword() &#xa;+ handleCancel() &#xa;+ navigateToRegistrationPage() &#xa;+ navigateToMainPage() &#xa;+ main(args: String[]) &#xa;+ displaySuccessMessage()" style="text;align=left;verticalAlign=top;spacingLeft=4;spacingRight=4;overflow=hidden;rotatable=0;points=[[0,0.5],[1,0.5]];portConstraint=eastwest;" vertex="1" parent="98bKc9Ek5NFNc1EkKo61-8">
          <mxGeometry y="164" width="210" height="136" as="geometry" />
        </mxCell>
        <mxCell id="98bKc9Ek5NFNc1EkKo61-26" value="RegistrationPage" style="swimlane;fontStyle=0;align=center;verticalAlign=top;childLayout=stackLayout;horizontal=1;startSize=26;horizontalStack=0;resizeParent=1;resizeLast=0;collapsible=1;marginBottom=0;rounded=0;shadow=0;strokeWidth=1;" vertex="1" parent="WIyWlLk6GJQsqaUBKTNV-1">
          <mxGeometry x="360" y="-1100" width="230" height="310" as="geometry">
            <mxRectangle x="550" y="140" width="160" height="26" as="alternateBounds" />
          </mxGeometry>
        </mxCell>
        <mxCell id="98bKc9Ek5NFNc1EkKo61-27" value="- firstNameField: TextField&#xa;- lastNameField: TextField&#xa;- usernameField: TextField&#xa;- ageField: TextField&#xa;- emailField: TextField&#xa;- passwordField: PasswordField&#xa;- showPasswordField: TextField&#xa;- genderComboBox: Combo&lt;String&gt;&#xa;- messageLabel: Label&#xa;- primaryStage: Stage" style="text;align=left;verticalAlign=top;spacingLeft=4;spacingRight=4;overflow=hidden;rotatable=0;points=[[0,0.5],[1,0.5]];portConstraint=eastwest;" vertex="1" parent="98bKc9Ek5NFNc1EkKo61-26">
          <mxGeometry y="26" width="230" height="164" as="geometry" />
        </mxCell>
        <mxCell id="98bKc9Ek5NFNc1EkKo61-34" value="" style="line;html=1;strokeWidth=1;align=left;verticalAlign=middle;spacingTop=-1;spacingLeft=3;spacingRight=3;rotatable=0;labelPosition=right;points=[];portConstraint=eastwest;" vertex="1" parent="98bKc9Ek5NFNc1EkKo61-26">
          <mxGeometry y="190" width="230" height="8" as="geometry" />
        </mxCell>
        <mxCell id="98bKc9Ek5NFNc1EkKo61-35" value="+ start(primaryStage: Stage) &#xa;+ handleRegister() &#xa;+ showPassword() &#xa;+ hidePassword()&#xa;+ navigateToLoginPage() &#xa;+ navigateToLoginPageWithSuccess() &#xa;+ main(args: String[])&#xa;" style="text;align=left;verticalAlign=top;spacingLeft=4;spacingRight=4;overflow=hidden;rotatable=0;points=[[0,0.5],[1,0.5]];portConstraint=eastwest;" vertex="1" parent="98bKc9Ek5NFNc1EkKo61-26">
          <mxGeometry y="198" width="230" height="106" as="geometry" />
        </mxCell>
        <mxCell id="98bKc9Ek5NFNc1EkKo61-46" value="WinRecord" style="swimlane;fontStyle=0;align=center;verticalAlign=top;childLayout=stackLayout;horizontal=1;startSize=26;horizontalStack=0;resizeParent=1;resizeLast=0;collapsible=1;marginBottom=0;rounded=0;shadow=0;strokeWidth=1;" vertex="1" parent="WIyWlLk6GJQsqaUBKTNV-1">
          <mxGeometry x="670" y="-890" width="130" height="150" as="geometry">
            <mxRectangle x="550" y="140" width="160" height="26" as="alternateBounds" />
          </mxGeometry>
        </mxCell>
        <mxCell id="98bKc9Ek5NFNc1EkKo61-47" value="+ xScore: int&#xa;+ oScore: int&#xa;+ result: String" style="text;align=left;verticalAlign=top;spacingLeft=4;spacingRight=4;overflow=hidden;rotatable=0;points=[[0,0.5],[1,0.5]];portConstraint=eastwest;" vertex="1" parent="98bKc9Ek5NFNc1EkKo61-46">
          <mxGeometry y="26" width="130" height="54" as="geometry" />
        </mxCell>
        <mxCell id="98bKc9Ek5NFNc1EkKo61-52" value="" style="line;html=1;strokeWidth=1;align=left;verticalAlign=middle;spacingTop=-1;spacingLeft=3;spacingRight=3;rotatable=0;labelPosition=right;points=[];portConstraint=eastwest;" vertex="1" parent="98bKc9Ek5NFNc1EkKo61-46">
          <mxGeometry y="80" width="130" height="8" as="geometry" />
        </mxCell>
        <mxCell id="98bKc9Ek5NFNc1EkKo61-53" value="+ getXScore(): int&#xa;+ getOScore(): int&#xa;+ getResult(): String&#xa;" style="text;align=left;verticalAlign=top;spacingLeft=4;spacingRight=4;overflow=hidden;rotatable=0;points=[[0,0.5],[1,0.5]];portConstraint=eastwest;" vertex="1" parent="98bKc9Ek5NFNc1EkKo61-46">
          <mxGeometry y="88" width="130" height="52" as="geometry" />
        </mxCell>
        <mxCell id="98bKc9Ek5NFNc1EkKo61-58" value="GameAndScore" style="swimlane;fontStyle=0;align=center;verticalAlign=top;childLayout=stackLayout;horizontal=1;startSize=26;horizontalStack=0;resizeParent=1;resizeLast=0;collapsible=1;marginBottom=0;rounded=0;shadow=0;strokeWidth=1;" vertex="1" parent="WIyWlLk6GJQsqaUBKTNV-1">
          <mxGeometry x="570" y="-650" width="200" height="310" as="geometry">
            <mxRectangle x="550" y="140" width="160" height="26" as="alternateBounds" />
          </mxGeometry>
        </mxCell>
        <mxCell id="98bKc9Ek5NFNc1EkKo61-59" value="- xTurn: boolean&#xa;- buttons: Button[][]&#xa;- statusLabel: Label &#xa;- xScore: int &#xa;- oScore: int &#xa;- ties: int &#xa;- winRecords: List&lt;WinRecord&gt; &#xa;- gameScene: Scene&#xa;- scoreboardScene: Scene" style="text;align=left;verticalAlign=top;spacingLeft=4;spacingRight=4;overflow=hidden;rotatable=0;points=[[0,0.5],[1,0.5]];portConstraint=eastwest;" vertex="1" parent="98bKc9Ek5NFNc1EkKo61-58">
          <mxGeometry y="26" width="200" height="134" as="geometry" />
        </mxCell>
        <mxCell id="98bKc9Ek5NFNc1EkKo61-60" value="" style="line;html=1;strokeWidth=1;align=left;verticalAlign=middle;spacingTop=-1;spacingLeft=3;spacingRight=3;rotatable=0;labelPosition=right;points=[];portConstraint=eastwest;" vertex="1" parent="98bKc9Ek5NFNc1EkKo61-58">
          <mxGeometry y="160" width="200" height="8" as="geometry" />
        </mxCell>
        <mxCell id="98bKc9Ek5NFNc1EkKo61-61" value="+ start(Stage) &#xa;+ handleButtonClick(Button) &#xa;+ checkWinner() &#xa;+ isBoardFull(): boolean &#xa;+ showWinner(String) &#xa;+ disableButtons() &#xa;+ resetGame() &#xa;+ resetBoard() &#xa;+ updateScoreboard(Stage)&#xa;" style="text;align=left;verticalAlign=top;spacingLeft=4;spacingRight=4;overflow=hidden;rotatable=0;points=[[0,0.5],[1,0.5]];portConstraint=eastwest;" vertex="1" parent="98bKc9Ek5NFNc1EkKo61-58">
          <mxGeometry y="168" width="200" height="142" as="geometry" />
        </mxCell>
        <mxCell id="98bKc9Ek5NFNc1EkKo61-62" value="Settings" style="swimlane;fontStyle=0;align=center;verticalAlign=top;childLayout=stackLayout;horizontal=1;startSize=26;horizontalStack=0;resizeParent=1;resizeLast=0;collapsible=1;marginBottom=0;rounded=0;shadow=0;strokeWidth=1;" vertex="1" parent="WIyWlLk6GJQsqaUBKTNV-1">
          <mxGeometry x="324" y="-480" width="180" height="120" as="geometry">
            <mxRectangle x="550" y="140" width="160" height="26" as="alternateBounds" />
          </mxGeometry>
        </mxCell>
        <mxCell id="98bKc9Ek5NFNc1EkKo61-63" value="- backgroundColors: Color[] &#xa;- random: Random" style="text;align=left;verticalAlign=top;spacingLeft=4;spacingRight=4;overflow=hidden;rotatable=0;points=[[0,0.5],[1,0.5]];portConstraint=eastwest;" vertex="1" parent="98bKc9Ek5NFNc1EkKo61-62">
          <mxGeometry y="26" width="180" height="44" as="geometry" />
        </mxCell>
        <mxCell id="98bKc9Ek5NFNc1EkKo61-64" value="" style="line;html=1;strokeWidth=1;align=left;verticalAlign=middle;spacingTop=-1;spacingLeft=3;spacingRight=3;rotatable=0;labelPosition=right;points=[];portConstraint=eastwest;" vertex="1" parent="98bKc9Ek5NFNc1EkKo61-62">
          <mxGeometry y="70" width="180" height="8" as="geometry" />
        </mxCell>
        <mxCell id="98bKc9Ek5NFNc1EkKo61-65" value="+ start(Stage) &#xa;+ toHexString(Color): String&#xa;" style="text;align=left;verticalAlign=top;spacingLeft=4;spacingRight=4;overflow=hidden;rotatable=0;points=[[0,0.5],[1,0.5]];portConstraint=eastwest;" vertex="1" parent="98bKc9Ek5NFNc1EkKo61-62">
          <mxGeometry y="78" width="180" height="42" as="geometry" />
        </mxCell>
        <mxCell id="98bKc9Ek5NFNc1EkKo61-69" value="" style="endArrow=classic;html=1;rounded=0;exitX=1.006;exitY=0.04;exitDx=0;exitDy=0;exitPerimeter=0;entryX=-0.007;entryY=0.864;entryDx=0;entryDy=0;entryPerimeter=0;" edge="1" parent="WIyWlLk6GJQsqaUBKTNV-1" source="98bKc9Ek5NFNc1EkKo61-15" target="98bKc9Ek5NFNc1EkKo61-27">
          <mxGeometry width="50" height="50" relative="1" as="geometry">
            <mxPoint x="330" y="-900" as="sourcePoint" />
            <mxPoint x="380" y="-950" as="targetPoint" />
          </mxGeometry>
        </mxCell>
        <mxCell id="98bKc9Ek5NFNc1EkKo61-70" value="" style="endArrow=classic;html=1;rounded=0;exitX=0.001;exitY=0.397;exitDx=0;exitDy=0;exitPerimeter=0;entryX=1;entryY=0.5;entryDx=0;entryDy=0;" edge="1" parent="WIyWlLk6GJQsqaUBKTNV-1" source="98bKc9Ek5NFNc1EkKo61-27" target="98bKc9Ek5NFNc1EkKo61-11">
          <mxGeometry width="50" height="50" relative="1" as="geometry">
            <mxPoint x="330" y="-900" as="sourcePoint" />
            <mxPoint x="380" y="-950" as="targetPoint" />
          </mxGeometry>
        </mxCell>
        <mxCell id="98bKc9Ek5NFNc1EkKo61-71" value="" style="endArrow=classic;html=1;rounded=0;exitX=0.395;exitY=0.004;exitDx=0;exitDy=0;exitPerimeter=0;entryX=0.374;entryY=0.994;entryDx=0;entryDy=0;entryPerimeter=0;" edge="1" parent="WIyWlLk6GJQsqaUBKTNV-1" source="zkfFHV4jXpPFQw0GAbJ--17" target="98bKc9Ek5NFNc1EkKo61-15">
          <mxGeometry width="50" height="50" relative="1" as="geometry">
            <mxPoint x="330" y="-590" as="sourcePoint" />
            <mxPoint x="380" y="-640" as="targetPoint" />
          </mxGeometry>
        </mxCell>
        <mxCell id="98bKc9Ek5NFNc1EkKo61-72" value="" style="endArrow=classic;html=1;rounded=0;exitX=0.645;exitY=0.998;exitDx=0;exitDy=0;exitPerimeter=0;entryX=0.637;entryY=0.003;entryDx=0;entryDy=0;entryPerimeter=0;" edge="1" parent="WIyWlLk6GJQsqaUBKTNV-1" source="98bKc9Ek5NFNc1EkKo61-15" target="zkfFHV4jXpPFQw0GAbJ--17">
          <mxGeometry width="50" height="50" relative="1" as="geometry">
            <mxPoint x="330" y="-590" as="sourcePoint" />
            <mxPoint x="380" y="-640" as="targetPoint" />
          </mxGeometry>
        </mxCell>
        <mxCell id="98bKc9Ek5NFNc1EkKo61-73" value="" style="endArrow=classic;html=1;rounded=0;exitX=1.006;exitY=0.299;exitDx=0;exitDy=0;exitPerimeter=0;entryX=0.004;entryY=0.966;entryDx=0;entryDy=0;entryPerimeter=0;" edge="1" parent="WIyWlLk6GJQsqaUBKTNV-1" source="zkfFHV4jXpPFQw0GAbJ--24" target="98bKc9Ek5NFNc1EkKo61-63">
          <mxGeometry width="50" height="50" relative="1" as="geometry">
            <mxPoint x="330" y="-490" as="sourcePoint" />
            <mxPoint x="380" y="-540" as="targetPoint" />
          </mxGeometry>
        </mxCell>
        <mxCell id="98bKc9Ek5NFNc1EkKo61-74" value="" style="endArrow=classic;html=1;rounded=0;exitX=0;exitY=0.5;exitDx=0;exitDy=0;" edge="1" parent="WIyWlLk6GJQsqaUBKTNV-1" source="98bKc9Ek5NFNc1EkKo61-65" target="zkfFHV4jXpPFQw0GAbJ--24">
          <mxGeometry width="50" height="50" relative="1" as="geometry">
            <mxPoint x="330" y="-490" as="sourcePoint" />
            <mxPoint x="380" y="-540" as="targetPoint" />
          </mxGeometry>
        </mxCell>
        <mxCell id="98bKc9Ek5NFNc1EkKo61-75" value="" style="endArrow=classic;html=1;rounded=0;exitX=1.008;exitY=0.883;exitDx=0;exitDy=0;exitPerimeter=0;entryX=-0.012;entryY=0.237;entryDx=0;entryDy=0;entryPerimeter=0;" edge="1" parent="WIyWlLk6GJQsqaUBKTNV-1" source="zkfFHV4jXpPFQw0GAbJ--18" target="98bKc9Ek5NFNc1EkKo61-59">
          <mxGeometry width="50" height="50" relative="1" as="geometry">
            <mxPoint x="290" y="-560" as="sourcePoint" />
            <mxPoint x="340" y="-610" as="targetPoint" />
          </mxGeometry>
        </mxCell>
        <mxCell id="98bKc9Ek5NFNc1EkKo61-76" value="" style="endArrow=classic;html=1;rounded=0;entryX=1.008;entryY=0.228;entryDx=0;entryDy=0;entryPerimeter=0;exitX=-0.006;exitY=0.556;exitDx=0;exitDy=0;exitPerimeter=0;" edge="1" parent="WIyWlLk6GJQsqaUBKTNV-1" source="98bKc9Ek5NFNc1EkKo61-59" target="zkfFHV4jXpPFQw0GAbJ--20">
          <mxGeometry width="50" height="50" relative="1" as="geometry">
            <mxPoint x="380" y="-580" as="sourcePoint" />
            <mxPoint x="430" y="-630" as="targetPoint" />
          </mxGeometry>
        </mxCell>
        <mxCell id="98bKc9Ek5NFNc1EkKo61-77" value="" style="endArrow=classic;html=1;rounded=0;exitX=0.5;exitY=1;exitDx=0;exitDy=0;entryX=0.572;entryY=0.001;entryDx=0;entryDy=0;entryPerimeter=0;" edge="1" parent="WIyWlLk6GJQsqaUBKTNV-1" source="98bKc9Ek5NFNc1EkKo61-46" target="98bKc9Ek5NFNc1EkKo61-58">
          <mxGeometry width="50" height="50" relative="1" as="geometry">
            <mxPoint x="410" y="-650" as="sourcePoint" />
            <mxPoint x="460" y="-700" as="targetPoint" />
          </mxGeometry>
        </mxCell>
        <mxCell id="98bKc9Ek5NFNc1EkKo61-78" value="" style="endArrow=classic;html=1;rounded=0;entryX=0;entryY=0.5;entryDx=0;entryDy=0;exitX=0.136;exitY=0.001;exitDx=0;exitDy=0;exitPerimeter=0;" edge="1" parent="WIyWlLk6GJQsqaUBKTNV-1" source="98bKc9Ek5NFNc1EkKo61-58" target="98bKc9Ek5NFNc1EkKo61-53">
          <mxGeometry width="50" height="50" relative="1" as="geometry">
            <mxPoint x="500" y="-620" as="sourcePoint" />
            <mxPoint x="550" y="-670" as="targetPoint" />
          </mxGeometry>
        </mxCell>
      </root>
    </mxGraphModel>
  </diagram>
</mxfile>
